<svg width="16" height="16" viewBox="0 0 16 16" fill="none" xmlns="http://www.w3.org/2000/svg">
<path d="M8 0.25C3.71875 0.25 0.25 3.75 0.25 8C0.25 12.2812 3.71875 15.75 8 15.75C12.25 15.75 15.75 12.2812 15.75 8C15.75 3.75 12.25 0.25 8 0.25ZM10.5625 11.4375C10.4375 11.5625 10.3125 11.6875 10.1875 11.7812C10.0938 11.875 10.0312 12 10 12.125C9.96875 12.3125 9.9375 12.4688 9.875 12.6562L9.3125 14.125C8.875 14.2188 8.4375 14.25 8 14.25V13.4062C8.03125 13 7.75 12.2812 7.28125 11.8125C7.09375 11.625 7 11.375 7 11.0938V10.0938C7 9.75 6.78125 9.40625 6.46875 9.21875C6.03125 8.96875 5.375 8.625 4.9375 8.40625C4.59375 8.21875 4.25 8 3.96875 7.71875H3.9375C3.71875 7.5 3.53125 7.3125 3.375 7.0625C3.0625 6.625 2.59375 5.9375 2.28125 5.46875C2.9375 4.03125 4.0625 2.90625 5.5 2.28125L6.25 2.65625C6.59375 2.8125 7 2.59375 7 2.21875V1.84375C7.21875 1.8125 7.5 1.78125 7.75 1.78125L8.625 2.65625C8.8125 2.84375 8.8125 3.1875 8.625 3.375L8.5 3.5L8.15625 3.84375C8.0625 3.9375 8.0625 4.09375 8.15625 4.1875L8.3125 4.34375C8.40625 4.4375 8.40625 4.59375 8.3125 4.6875L8.0625 4.9375C8 5 7.9375 5 7.875 5H7.59375C7.53125 5 7.46875 5.03125 7.4375 5.09375L7.125 5.375C7.0625 5.4375 7.03125 5.5 7.03125 5.5625C7.03125 5.59375 7.0625 5.65625 7.0625 5.6875L7.5625 6.65625C7.625 6.8125 7.53125 7 7.34375 7H7.15625C7.09375 7 7.03125 7 7 6.96875L6.6875 6.6875C6.625 6.625 6.5 6.59375 6.375 6.59375C6.3125 6.59375 6.25 6.59375 6.21875 6.59375L5.25 6.9375C5.09375 6.96875 5 7.125 5 7.28125C5 7.4375 5.0625 7.5625 5.1875 7.625L5.53125 7.78125C5.84375 7.9375 6.15625 8 6.5 8C6.8125 8 7.1875 8.875 7.5 9H9.5625C9.84375 9 10.0938 9.125 10.2812 9.3125L10.7188 9.75C10.875 9.90625 11 10.1562 11 10.4062C11 10.8125 10.8125 11.1875 10.5625 11.4375ZM13.2812 8.59375C13.0938 8.53125 12.9375 8.4375 12.8125 8.28125L12.25 7.4375C12.1875 7.3125 12.125 7.15625 12.125 7.03125C12.125 6.875 12.1875 6.71875 12.25 6.59375L12.875 5.6875C12.9375 5.5625 13.0312 5.5 13.1562 5.4375L13.5625 5.21875C14 6.0625 14.25 7 14.25 8C14.25 8.28125 14.2188 8.5625 14.1875 8.8125L13.2812 8.59375Z" fill="#5B6236"/>
</svg>
