<?xml version="1.0" encoding="utf-8"?>
<!-- Generator: Adobe Illustrator 26.0.3, SVG Export Plug-In . SVG Version: 6.00 Build 0)  -->
<svg version="1.1" id="Layer_1" xmlns="http://www.w3.org/2000/svg" xmlns:xlink="http://www.w3.org/1999/xlink" x="0px" y="0px"
	 viewBox="0 0 16 16" style="enable-background:new 0 0 16 16;" xml:space="preserve">
<style type="text/css">
	.st0{fill:#FFFFFF;}
</style>
<path class="st0" d="M8,0.2C3.7,0.2,0.2,3.8,0.2,8c0,4.3,3.5,7.8,7.8,7.8c4.2,0,7.8-3.5,7.8-7.8C15.8,3.8,12.2,0.2,8,0.2z
	 M10.6,11.4c-0.1,0.1-0.2,0.2-0.4,0.3C10.1,11.9,10,12,10,12.1c0,0.2-0.1,0.3-0.1,0.5l-0.6,1.5c-0.4,0.1-0.9,0.1-1.3,0.1v-0.8
	c0-0.4-0.2-1.1-0.7-1.6C7.1,11.6,7,11.4,7,11.1v-1c0-0.3-0.2-0.7-0.5-0.9C6,9,5.4,8.6,4.9,8.4C4.6,8.2,4.2,8,4,7.7h0
	C3.7,7.5,3.5,7.3,3.4,7.1C3.1,6.6,2.6,5.9,2.3,5.5C2.9,4,4.1,2.9,5.5,2.3l0.8,0.4C6.6,2.8,7,2.6,7,2.2V1.8c0.2,0,0.5-0.1,0.8-0.1
	l0.9,0.9c0.2,0.2,0.2,0.5,0,0.7L8.5,3.5L8.2,3.8c-0.1,0.1-0.1,0.2,0,0.3l0.2,0.2c0.1,0.1,0.1,0.2,0,0.3L8.1,4.9C8,5,7.9,5,7.9,5H7.6
	C7.5,5,7.5,5,7.4,5.1L7.1,5.4C7.1,5.4,7,5.5,7,5.6c0,0,0,0.1,0,0.1l0.5,1C7.6,6.8,7.5,7,7.3,7H7.2C7.1,7,7,7,7,7L6.7,6.7
	C6.6,6.6,6.5,6.6,6.4,6.6c-0.1,0-0.1,0-0.2,0l-1,0.3C5.1,7,5,7.1,5,7.3s0.1,0.3,0.2,0.3l0.3,0.2C5.8,7.9,6.2,8,6.5,8
	c0.3,0,0.7,0.9,1,1h2.1c0.3,0,0.5,0.1,0.7,0.3l0.4,0.4c0.2,0.2,0.3,0.4,0.3,0.7C11,10.8,10.8,11.2,10.6,11.4z M13.3,8.6
	c-0.2-0.1-0.3-0.2-0.5-0.3l-0.6-0.8c-0.1-0.1-0.1-0.3-0.1-0.4c0-0.2,0.1-0.3,0.1-0.4l0.6-0.9c0.1-0.1,0.2-0.2,0.3-0.2l0.4-0.2
	C14,6.1,14.2,7,14.2,8c0,0.3,0,0.6-0.1,0.8L13.3,8.6z"/>
</svg>
