<svg width="56" height="56" viewBox="0 0 56 56" fill="none" xmlns="http://www.w3.org/2000/svg">
<path d="M33.6028 14.8943H43.7736C46.0611 14.8943 47.4236 14.9221 47.8597 14.9777C49.3611 15.1443 50.2778 15.6443 50.6097 16.4763C50.8722 17.0874 51.0028 17.9749 51.0028 19.1402C51.0028 20.111 50.8805 20.8749 50.6361 21.4304C50.2347 22.2915 48.968 22.7624 46.8375 22.8457C46.3486 22.8735 44.8208 22.8943 42.2528 22.9082H33.6014V14.8943H33.6028ZM33.6028 4.46515H44.8736C46.1139 4.46515 46.943 4.48599 47.3625 4.52765C48.5319 4.65265 49.3097 5.05543 49.6944 5.7346C49.9569 6.17904 50.0875 6.96238 50.0875 8.08738C50.0875 8.92071 50.0264 9.54432 49.9041 9.96099C49.6778 10.6415 49.2236 11.1332 48.5416 11.4388C47.7375 11.7721 46.218 11.9388 43.9833 11.9388H33.6028V4.46515ZM45.85 25.8638C48.3653 25.8638 50.2778 25.5513 51.5875 24.9277C53.6305 23.9693 54.6528 21.9374 54.6528 18.829C54.6528 16.3457 53.9458 14.6652 52.5305 13.7915C51.85 13.3888 50.818 13.1527 49.4389 13.0832C50.7833 12.9443 51.7 12.6804 52.1889 12.2929C53.2194 11.4888 53.7347 10.0929 53.7347 8.1096C53.7347 6.12626 53.3847 4.70265 52.6861 3.7596C51.7597 2.53876 50.25 1.82349 48.1541 1.61515C47.4555 1.54571 46.2153 1.51099 44.4347 1.51099H30.0264V25.8638H45.85Z" fill="#F1E9E1"/>
<path d="M22.882 17.3611C22.882 18.4305 22.7611 19.3777 22.5208 20.2027C22.1597 21.3805 21.4625 22.1375 20.4292 22.4764C19.8778 22.6527 19.1458 22.7708 18.2333 22.8319C17.3208 22.893 15.7958 22.9236 13.6611 22.9236C12.0597 22.9236 10.7597 22.9027 9.76112 22.8625C8.50418 22.8222 7.54862 22.693 6.89445 22.4764C6.15418 22.2333 5.60695 21.8333 5.25418 21.2791C4.9014 20.725 4.65556 19.8986 4.51806 18.8027C4.44862 18.2625 4.41529 16.5569 4.41529 13.6889V10.0152C4.41529 8.9333 4.53612 7.98608 4.7764 7.17358C5.13751 6.00969 5.83473 5.25969 6.86945 4.9208C7.43751 4.73191 8.14306 4.60552 8.98751 4.5458C9.83056 4.48469 11.2431 4.45413 13.2236 4.45413C14.9972 4.45413 16.4097 4.47497 17.4597 4.51524C18.7514 4.55552 19.7333 4.68469 20.4042 4.90136C21.1445 5.14441 21.6917 5.54025 22.0445 6.08886C22.3972 6.63747 22.6431 7.46524 22.7806 8.57497C22.8486 9.11663 22.8833 10.8208 22.8833 13.6889V17.3625L22.882 17.3611ZM26.4528 12.4514C26.4528 10.2069 26.3861 8.6583 26.2542 7.80691C25.7917 4.65413 24.3361 2.62219 21.8903 1.71386C21.0472 1.40136 20.0639 1.18469 18.9403 1.06386C17.8167 0.943023 16.1722 0.883301 14.007 0.883301C12.2722 0.883301 10.8333 0.912468 9.69306 0.968023C7.92501 1.05275 6.49445 1.30136 5.40418 1.71386C2.95834 2.63747 1.50279 4.66108 1.04029 7.78608C0.908342 8.68052 0.841675 10.2791 0.841675 12.5805C0.841675 14.8819 0.858342 16.4014 0.891675 17.4805C0.925008 19.143 1.14723 20.5847 1.56112 21.8055C2.15556 23.5666 3.32084 24.8166 5.05695 25.5555C5.98195 25.9389 6.99445 26.1902 8.09445 26.3111C9.19306 26.4319 11.0403 26.4916 13.6347 26.4916C15.1722 26.4916 16.4445 26.4708 17.4528 26.4277C19.4028 26.3569 20.9889 26.0652 22.2125 25.5541C23.4195 25.0569 24.3278 24.3611 24.9389 23.4666C25.55 22.5722 25.9806 21.3152 26.2278 19.6958C26.3764 18.7014 26.4514 16.2875 26.4514 12.4514" fill="#F1E9E1"/>
<path d="M22.6181 29.4596C22.2139 29.4791 21.8861 29.536 21.6361 29.6305C21.0764 29.8416 20.7431 30.3041 20.6375 31.0194C20.607 31.2235 20.5917 31.5902 20.5917 32.1166C20.5917 32.643 20.5958 32.9902 20.6028 33.2374C20.6111 33.618 20.6611 33.9471 20.7556 34.2263C20.8917 34.6291 21.1583 34.9152 21.5556 35.0846C21.7667 35.1721 21.9986 35.2305 22.25 35.2582C22.5014 35.286 22.9236 35.2999 23.5181 35.2999C23.8695 35.2999 24.1611 35.2957 24.3917 35.2846C24.8375 35.268 25.2014 35.2013 25.4806 35.0846C25.757 34.9707 25.9639 34.8124 26.1042 34.6069C26.2445 34.4027 26.3417 34.1152 26.3986 33.7444C26.432 33.5166 26.45 32.9638 26.45 32.0874C26.45 31.5735 26.4347 31.2194 26.4042 31.0249C26.2986 30.3041 25.9653 29.8388 25.4056 29.6305C25.2125 29.5596 24.9875 29.5096 24.7306 29.4819C24.4736 29.4541 24.0972 29.4402 23.6014 29.4402C23.2042 29.4402 22.875 29.4471 22.6153 29.4596" fill="#F1E9E1"/>
<path d="M51.5749 45.918C51.5749 46.9874 51.4541 47.9346 51.2138 48.7596C50.8527 49.936 50.1555 50.6944 49.1222 51.0332C48.5708 51.2096 47.8388 51.3277 46.9263 51.3888C46.0138 51.4499 44.4902 51.4805 42.3541 51.4805C40.7527 51.4805 39.4527 51.4596 38.4541 51.4194C37.1972 51.3791 36.2416 51.2499 35.5874 51.0332C34.8472 50.7902 34.2999 50.3902 33.9472 49.836C33.5944 49.2819 33.3486 48.4555 33.2111 47.3596C33.1416 46.818 33.1083 45.1138 33.1083 42.2457V38.5721C33.1083 37.4902 33.2291 36.543 33.4694 35.7305C33.8305 34.5666 34.5277 33.8166 35.5624 33.4777C36.1305 33.2888 36.8361 33.1638 37.6805 33.1027C38.5236 33.0416 39.9361 33.011 41.9166 33.011C43.6902 33.011 45.1027 33.0319 46.1527 33.0721C47.4444 33.1124 48.4263 33.2416 49.0972 33.4582C49.8374 33.7013 50.3847 34.0971 50.7374 34.6457C51.0902 35.193 51.3361 36.0221 51.4736 37.1319C51.5416 37.6735 51.5763 39.3777 51.5763 42.2457V45.9193L51.5749 45.918ZM55.1458 41.0082C55.1458 38.7638 55.0791 37.2152 54.9472 36.3638C54.4847 33.211 53.0291 31.1791 50.5833 30.2707C49.7402 29.9582 48.7569 29.7416 47.6333 29.6207C46.5097 29.4999 44.8652 29.4402 42.6999 29.4402C40.9652 29.4402 39.5263 29.4694 38.3861 29.5249C36.618 29.6096 35.1874 29.8582 34.0972 30.2707C31.6513 31.1944 30.1958 33.218 29.7333 36.343C29.6013 37.2374 29.5347 38.836 29.5347 41.1374C29.5347 43.4388 29.5513 44.9582 29.5847 46.0374C29.618 47.6999 29.8402 49.1416 30.2541 50.3624C30.8486 52.1235 32.0138 53.3735 33.7499 54.1124C34.6749 54.4957 35.6874 54.7471 36.7874 54.868C37.8861 54.9888 39.7333 55.0485 42.3277 55.0485C43.8652 55.0485 45.1374 55.0277 46.1458 54.9846C48.0958 54.9138 49.6819 54.6221 50.9055 54.111C52.1124 53.6138 53.0208 52.918 53.6333 52.0235C54.2444 51.1291 54.6749 49.8721 54.9222 48.2527C55.0708 47.2582 55.1458 44.8444 55.1458 41.0082Z" fill="#F1E9E1"/>
</svg>
