<?xml version="1.0" encoding="utf-8"?>
<!-- Generator: Adobe Illustrator 26.0.3, SVG Export Plug-In . SVG Version: 6.00 Build 0)  -->
<svg version="1.1" id="Layer_1" xmlns="http://www.w3.org/2000/svg" xmlns:xlink="http://www.w3.org/1999/xlink" x="0px" y="0px"
	 viewBox="0 0 17 16" style="enable-background:new 0 0 17 16;" xml:space="preserve">
<style type="text/css">
	.st0{fill:#FFFFFF;}
</style>
<path class="st0" d="M8.3,6c0.8,0,1.6,0.2,2.2,0.6V16h-6v-5.4l-1.7,2.8c-0.3,0.6-1.1,0.8-1.7,0.4c-0.6-0.3-0.8-1.1-0.4-1.7l2.4-4
	C3.8,6.8,5.2,6,6.7,6H8.3z M10,2.5C10,3.9,8.9,5,7.5,5C6.1,5,5,3.9,5,2.5C5,1.1,6.1,0,7.5,0C8.9,0,10,1.1,10,2.5z M14.5,0.5v3.7
	C14.8,4.3,15,4.7,15,5v3.4l0.5-0.2V6.5C15.5,6.2,15.7,6,16,6h0.5C16.8,6,17,6.2,17,6.5v2.7c0,0.2-0.2,0.4-0.3,0.5L15,10.2V11h1.5
	c0.2,0,0.5,0.2,0.5,0.5V12c0,0.3-0.2,0.5-0.5,0.5h-1.4l0.7,2.9c0.1,0.3-0.2,0.6-0.5,0.6h-1.8c-0.3,0-0.5-0.2-0.5-0.5v-3h-0.5
	c-0.6,0-1-0.4-1-1V7c0-0.5,0.4-1,1-1V5c0-0.3,0.2-0.7,0.5-0.8V1c-0.3,0-0.5-0.2-0.5-0.5C12.5,0.2,12.7,0,13,0h1
	C14.2,0,14.5,0.2,14.5,0.5z"/>
</svg>
