<svg width="17" height="16" viewBox="0 0 17 16" fill="none" xmlns="http://www.w3.org/2000/svg">
<path d="M8.28125 6C9.0625 6 9.84375 6.25 10.5 6.625V16H4.5V10.5625L2.8125 13.4062C2.46875 14 1.6875 14.1875 1.09375 13.8438C0.5 13.5 0.3125 12.7188 0.65625 12.125L3.03125 8.09375C3.8125 6.8125 5.1875 6 6.6875 6H8.28125ZM10 2.5C10 3.90625 8.875 5 7.5 5C6.09375 5 5 3.90625 5 2.5C5 1.125 6.09375 0 7.5 0C8.875 0 10 1.125 10 2.5ZM14.5 0.5V4.15625C14.7812 4.3125 15 4.65625 15 5V8.4375L15.5 8.25V6.5C15.5 6.25 15.7188 6 16 6H16.5C16.75 6 17 6.25 17 6.5V9.15625C17 9.375 16.8438 9.5625 16.6562 9.625L15 10.1875V11H16.5C16.75 11 17 11.25 17 11.5V12C17 12.2812 16.75 12.5 16.5 12.5H15.125L15.8438 15.4062C15.9062 15.7188 15.6562 16 15.3438 16H13.5C13.2188 16 13 15.7812 13 15.5V12.5H12.5C11.9375 12.5 11.5 12.0625 11.5 11.5V7C11.5 6.46875 11.9375 6 12.5 6V5C12.5 4.65625 12.6875 4.3125 13 4.15625V1C12.7188 1 12.5 0.78125 12.5 0.5C12.5 0.25 12.7188 0 13 0H14C14.25 0 14.5 0.25 14.5 0.5Z" fill="#12026B"/>
</svg>
