<?xml version="1.0" encoding="utf-8"?>
<!-- Generator: Adobe Illustrator 26.0.3, SVG Export Plug-In . SVG Version: 6.00 Build 0)  -->
<svg version="1.1" id="Layer_1" xmlns="http://www.w3.org/2000/svg" xmlns:xlink="http://www.w3.org/1999/xlink" x="0px" y="0px"
	 viewBox="0 0 18 15" style="enable-background:new 0 0 18 15;" xml:space="preserve">
<style type="text/css">
	.st0{fill:#FFFFFF;}
</style>
<path class="st0" d="M9,7c-2.5,0-6,3.8-6,6.3C3,14.4,3.8,15,5.2,15c1.5,0,2.5-0.8,3.8-0.8c1.2,0,2.2,0.8,3.8,0.8
	c1.4,0,2.2-0.6,2.2-1.7C15,10.8,11.5,7,9,7z M4.4,6.6C4.1,5.5,3.1,4.8,2.2,5.1S0.8,6.3,1.1,7.4C1.4,8.5,2.4,9.2,3.3,9
	S4.7,7.7,4.4,6.6z M7,6c1-0.2,1.4-1.6,1.1-2.9c-0.4-1.4-1.5-2.2-2.4-2S4.2,2.6,4.6,4C5,5.3,6.1,6.2,7,6z M15.8,5.1
	c-0.9-0.2-1.9,0.5-2.2,1.6c-0.3,1.1,0.2,2.1,1.1,2.3c0.9,0.2,1.9-0.5,2.2-1.6C17.2,6.3,16.7,5.3,15.8,5.1z M10.9,6
	c1,0.2,2.1-0.6,2.4-2c0.3-1.3-0.1-2.7-1.1-2.9c-1-0.2-2.1,0.6-2.4,2C9.5,4.4,10,5.7,10.9,6z"/>
</svg>
