<svg width="62" height="36" viewBox="0 0 62 36" fill="none" xmlns="http://www.w3.org/2000/svg">
<path d="M9.422 0.172001C4.4544 0.172001 0.484497 4.3641 0.484497 9.4845V17.0783C0.484497 22.1988 4.4544 26.422 9.422 26.422H13.2032V34.7033C13.1998 34.852 13.2266 34.9998 13.2819 35.1378C13.3372 35.2758 13.42 35.4012 13.5251 35.5064C13.6303 35.6115 13.7557 35.6943 13.8937 35.7496C14.0317 35.8049 14.1795 35.8317 14.3282 35.8283C15.9946 35.8283 17.5739 34.9806 19.1094 33.7658C20.645 32.551 22.1426 30.8986 23.4532 29.047C26.0743 25.3436 28.047 20.8546 28.047 17.078V9.4842C28.047 4.3641 24.0779 0.1717 19.1095 0.1717H9.4213L9.422 0.172001ZM42.891 0.172001C37.9234 0.172001 33.9535 4.3641 33.9535 9.4845V17.0783C33.9535 22.1988 37.9234 26.422 42.891 26.422H46.6722V34.7033C46.6689 34.8493 46.6947 34.9945 46.7481 35.1305C46.8015 35.2664 46.8814 35.3904 46.9833 35.4951C47.0851 35.5998 47.2067 35.6832 47.3411 35.7404C47.4755 35.7976 47.6199 35.8275 47.766 35.8283C49.4324 35.8283 51.0428 34.9806 52.5785 33.7658C54.1142 32.551 55.6116 30.8986 56.9223 29.047C59.5436 25.3436 61.5161 20.8547 61.5161 17.078V9.4842C61.5161 4.3641 57.5479 0.1717 52.5786 0.1717H42.8911L42.891 0.172001ZM9.422 2.3595H9.4532H19.1094C22.841 2.3595 25.8594 5.4913 25.8594 9.4845V17.0783C25.8594 20.0326 24.0666 24.3694 21.6406 27.7973C20.4276 29.511 19.0785 31.0086 17.7656 32.0473C16.911 32.7233 16.1386 33.1202 15.4218 33.3598V25.3286C15.4251 25.1826 15.3993 25.0374 15.3459 24.9014C15.2925 24.7655 15.2125 24.6415 15.1107 24.5368C15.0089 24.4321 14.8873 24.3487 14.7529 24.2915C14.6185 24.2343 14.4741 24.2044 14.328 24.2036H9.4218C5.6914 24.2036 2.6718 21.0715 2.6718 17.0786V9.4848C2.6718 5.4919 5.6914 2.3598 9.4218 2.3598L9.422 2.3595ZM42.891 2.3595H52.5785C56.3112 2.3595 59.3285 5.4913 59.3285 9.4845V17.0783C59.3285 20.0325 57.5359 24.3693 55.1097 27.7973C53.8966 29.5111 52.5477 31.0086 51.2347 32.0473C50.3954 32.7111 49.5987 33.0854 48.8909 33.3286V25.3286C48.8943 25.1799 48.8675 25.0321 48.8122 24.8941C48.7569 24.7561 48.6741 24.6307 48.569 24.5255C48.4638 24.4204 48.3384 24.3376 48.2004 24.2823C48.0624 24.227 47.9146 24.2002 47.7659 24.2036H42.8909C39.1605 24.2036 36.1409 21.0715 36.1409 17.0786V9.4848C36.1409 5.4919 39.1605 2.3598 42.8909 2.3598L42.891 2.3595Z" fill="#faf9f5"/>
</svg>
